<?xml version="1.0" encoding="utf-8"?>
<!-- Generator: Adobe Illustrator 21.1.0, SVG Export Plug-In . SVG Version: 6.00 Build 0)  -->
<svg version="1.1" id="Layer_1" xmlns="http://www.w3.org/2000/svg" xmlns:xlink="http://www.w3.org/1999/xlink" x="0px" y="0px"
	 viewBox="0 0 512 512" style="enable-background:new 0 0 512 512;" xml:space="preserve">
<style type="text/css">
	.st0{display:none;fill:#F9DE8F;}
	.st1{fill:#FC6767;}
	.st2{fill:#405069;}
	.st3{fill:#F857A6;}
</style>
<path class="st0" d="M392.4,68.1h67.2c14.3,0,25.9,11.6,25.9,25.9v91h-459V94c0-14.3,11.6-25.9,25.9-25.9h67.2H392.4L392.4,68.1
	L392.4,68.1z"/>
<g>
	<path class="st1" d="M141.1,130.6L141.1,130.6c-11.9,0-21.5-9.6-21.5-21.5V30.7c0-11.9,9.6-21.5,21.5-21.5l0,0
		c11.9,0,21.5,9.6,21.5,21.5V109C162.6,121,153,130.6,141.1,130.6z"/>
	<path class="st1" d="M370.9,130.6L370.9,130.6c-11.9,0-21.5-9.6-21.5-21.5V30.7c0-11.9,9.6-21.5,21.5-21.5l0,0
		c11.9,0,21.5,9.6,21.5,21.5V109C392.4,121,382.8,130.6,370.9,130.6z"/>
</g>
<path class="st2" d="M485.5,132.3c5.1,0,9.2-4.1,9.2-9.2V94c0-19.4-15.8-35.1-35.1-35.1h-58V30.7c0-16.9-13.8-30.7-30.7-30.7
	s-30.7,13.8-30.7,30.7v28.1H171.8V30.7C171.8,13.8,158,0,141.1,0s-30.7,13.8-30.7,30.7v28.1h-58C33,58.9,17.3,74.6,17.3,94v91
	c0,5.1,4.1,9.2,9.2,9.2h449.9V471c0,12.5-10.1,22.6-22.6,22.6H58.2c-12.5,0-22.6-10.1-22.6-22.6V256c0-5.1-4.1-9.2-9.2-9.2
	s-9.2,4.1-9.2,9.2v215c0,22.6,18.4,41,41,41h395.5c22.6,0,41-18.4,41-41V185c0-5.1-4.1-9.2-9.2-9.2H35.7V94
	c0-9.2,7.5-16.7,16.7-16.7h58v31.8c0,16.9,13.8,30.7,30.7,30.7s30.7-13.8,30.7-30.7V77.3h168.3v31.8c0,16.9,13.8,30.7,30.7,30.7
	s30.7-13.8,30.7-30.7V77.3h58c9.2,0,16.7,7.5,16.7,16.7v29.2C476.3,128.2,480.5,132.3,485.5,132.3z M153.4,109.1
	c0,6.8-5.5,12.3-12.3,12.3s-12.3-5.5-12.3-12.3V30.7c0-6.8,5.5-12.3,12.3-12.3s12.3,5.5,12.3,12.3V109.1z M383.2,109.1
	c0,6.8-5.5,12.3-12.3,12.3s-12.3-5.5-12.3-12.3V30.7c0-6.8,5.5-12.3,12.3-12.3s12.3,5.5,12.3,12.3V109.1z"/>
<g>
	<path class="st2" d="M101.3,312c0-33.7,29.2-61,65-61s65,27.4,65,61v12.4h115.3v-20.3c0-2.7,2.4-5,5.3-5h21.5v-18.4
		c0-2.7,2.4-5,5.3-5h32.4c2.9,0,5.3,2.2,5.3,5v43.7h3.2c2.9,0,5.3,2.2,5.3,5v23c0,2.7-2.4,5-5.3,5H231.4v12.4c0,33.7-29.2,61-65,61
		s-65-27.4-65-61L101.3,312L101.3,312z M166.4,260.9c-30,0-54.5,22.9-54.5,51.1v57.8c0,28.2,24.4,51.1,54.5,51.1
		s54.5-22.9,54.5-51.1V312C220.8,283.8,196.4,260.9,166.4,260.9z M406,285.7h-21.9v18.4c0,2.7-2.4,5-5.3,5h-21.5v15.3H406V285.7z
		 M414.4,334.4h-183v13.1h183V334.4z"/>
	<path class="st3" d="M111.9,312c0-28.2,24.4-51.1,54.5-51.1s54.5,22.9,54.5,51.1v57.8c0,28.2-24.4,51.1-54.5,51.1
		s-54.5-22.9-54.5-51.1C111.9,369.8,111.9,312,111.9,312z M166.4,279.9c-18.9,0-34.2,14.4-34.2,32.1v57.8
		c0,17.7,15.4,32.1,34.2,32.1c18.9,0,34.2-14.4,34.2-32.1V312C200.6,294.3,185.2,279.9,166.4,279.9z"/>
	<path class="st3" d="M384.1,285.7H406v38.7h-48.7v-15.3h21.5c2.9,0,5.3-2.2,5.3-5L384.1,285.7L384.1,285.7z"/>
	<path class="st2" d="M132.1,312c0-17.7,15.4-32.1,34.2-32.1c18.9,0,34.2,14.4,34.2,32.1v57.8c0,17.7-15.4,32.1-34.2,32.1
		c-18.9,0-34.2-14.4-34.2-32.1V312z M166.4,289.8c-13,0-23.7,10-23.7,22.2v57.8c0,12.2,10.6,22.2,23.7,22.2
		c13.1,0,23.7-10,23.7-22.2V312C190,299.8,179.4,289.8,166.4,289.8z"/>
	<rect x="231.4" y="334.4" class="st3" width="183" height="13.1"/>
</g>
</svg>
