<svg id="Layer_1" xmlns="http://www.w3.org/2000/svg" viewBox="0 0 512 512"><style>.st0{display:none;fill:#f9de8f}.st1{fill:#fc6767}.st2{fill:#405069}.st3{fill:#f857a6}</style><path class="st0" d="M392.4 68.1h67.2c14.3 0 25.9 11.6 25.9 25.9v91h-459V94c0-14.3 11.6-25.9 25.9-25.9h340z"/><path class="st1" d="M141.1 130.6c-11.9 0-21.5-9.6-21.5-21.5V30.7c0-11.9 9.6-21.5 21.5-21.5s21.5 9.6 21.5 21.5V109c0 12-9.6 21.6-21.5 21.6zm229.8 0c-11.9 0-21.5-9.6-21.5-21.5V30.7c0-11.9 9.6-21.5 21.5-21.5s21.5 9.6 21.5 21.5V109c0 12-9.6 21.6-21.5 21.6z"/><path class="st2" d="M485.5 132.3c5.1 0 9.2-4.1 9.2-9.2V94c0-19.4-15.8-35.1-35.1-35.1h-58V30.7c0-16.9-13.8-30.7-30.7-30.7s-30.7 13.8-30.7 30.7v28.1H171.8V30.7C171.8 13.8 158 0 141.1 0s-30.7 13.8-30.7 30.7v28.1h-58C33 58.9 17.3 74.6 17.3 94v91c0 5.1 4.1 9.2 9.2 9.2h449.9V471c0 12.5-10.1 22.6-22.6 22.6H58.2c-12.5 0-22.6-10.1-22.6-22.6V256c0-5.1-4.1-9.2-9.2-9.2s-9.2 4.1-9.2 9.2v215c0 22.6 18.4 41 41 41h395.5c22.6 0 41-18.4 41-41V185c0-5.1-4.1-9.2-9.2-9.2H35.7V94c0-9.2 7.5-16.7 16.7-16.7h58v31.8c0 16.9 13.8 30.7 30.7 30.7s30.7-13.8 30.7-30.7V77.3h168.3v31.8c0 16.9 13.8 30.7 30.7 30.7s30.7-13.8 30.7-30.7V77.3h58c9.2 0 16.7 7.5 16.7 16.7v29.2c.1 5 4.3 9.1 9.3 9.1zm-332.1-23.2c0 6.8-5.5 12.3-12.3 12.3s-12.3-5.5-12.3-12.3V30.7c0-6.8 5.5-12.3 12.3-12.3s12.3 5.5 12.3 12.3v78.4zm229.8 0c0 6.8-5.5 12.3-12.3 12.3s-12.3-5.5-12.3-12.3V30.7c0-6.8 5.5-12.3 12.3-12.3s12.3 5.5 12.3 12.3v78.4z"/><path class="st2" d="M101.3 312c0-33.7 29.2-61 65-61s65 27.4 65 61v12.4h115.3v-20.3c0-2.7 2.4-5 5.3-5h21.5v-18.4c0-2.7 2.4-5 5.3-5h32.4c2.9 0 5.3 2.2 5.3 5v43.7h3.2c2.9 0 5.3 2.2 5.3 5v23c0 2.7-2.4 5-5.3 5H231.4v12.4c0 33.7-29.2 61-65 61s-65-27.4-65-61l-.1-57.8zm65.1-51.1c-30 0-54.5 22.9-54.5 51.1v57.8c0 28.2 24.4 51.1 54.5 51.1s54.5-22.9 54.5-51.1V312c-.1-28.2-24.5-51.1-54.5-51.1zM406 285.7h-21.9v18.4c0 2.7-2.4 5-5.3 5h-21.5v15.3H406v-38.7zm8.4 48.7h-183v13.1h183v-13.1z"/><path class="st3" d="M111.9 312c0-28.2 24.4-51.1 54.5-51.1s54.5 22.9 54.5 51.1v57.8c0 28.2-24.4 51.1-54.5 51.1s-54.5-22.9-54.5-51.1V312zm54.5-32.1c-18.9 0-34.2 14.4-34.2 32.1v57.8c0 17.7 15.4 32.1 34.2 32.1 18.9 0 34.2-14.4 34.2-32.1V312c0-17.7-15.4-32.1-34.2-32.1zm217.7 5.8H406v38.7h-48.7v-15.3h21.5c2.9 0 5.3-2.2 5.3-5v-18.4z"/><path class="st2" d="M132.1 312c0-17.7 15.4-32.1 34.2-32.1 18.9 0 34.2 14.4 34.2 32.1v57.8c0 17.7-15.4 32.1-34.2 32.1-18.9 0-34.2-14.4-34.2-32.1V312zm34.3-22.2c-13 0-23.7 10-23.7 22.2v57.8c0 12.2 10.6 22.2 23.7 22.2s23.7-10 23.7-22.2V312c-.1-12.2-10.7-22.2-23.7-22.2z"/><path class="st3" d="M231.4 334.4h183v13.1h-183z"/></svg>