<svg id="Layer_1" xmlns="http://www.w3.org/2000/svg" viewBox="0 0 512 512"><style>.st0{fill:#f9de8f}.st1{fill:#67d1d3}.st2{fill:#f09ea0}.st3{fill:#405069}</style><path class="st0" d="M143.3 330.1l9.7 19.7c.2.4.6.7 1.1.8l21.8 3.2c1.2.2 1.7 1.6.8 2.5L161 371.7c-.3.3-.5.8-.4 1.3l3.7 21.7c.2 1.2-1.1 2.1-2.1 1.5L142.7 386c-.4-.2-.9-.2-1.4 0l-19.5 10.2c-1.1.6-2.3-.3-2.1-1.5l3.7-21.7c.1-.5-.1-1-.4-1.3l-15.8-15.4c-.9-.8-.4-2.3.8-2.5l21.8-3.2c.5-.1.9-.4 1.1-.8l9.7-19.7c.6-1.1 2.2-1.1 2.7 0zm264.9 89.6l9.7 19.7c.2.4.6.7 1.1.8l21.8 3.2c1.2.2 1.7 1.6.8 2.5l-15.8 15.4c-.3.3-.5.8-.4 1.3l3.7 21.7c.2 1.2-1 2.1-2.1 1.5l-19.5-10.2c-.4-.2-.9-.2-1.4 0l-19.5 10.2c-1.1.6-2.3-.3-2.1-1.5l3.7-21.7c.1-.5-.1-1-.4-1.3L372 445.9c-.9-.8-.4-2.3.8-2.5l21.8-3.2c.5-.1.9-.4 1.1-.8l9.7-19.7c.7-1.1 2.3-1.1 2.8 0z"/><circle class="st1" cx="159.7" cy="181.8" r="24"/><circle class="st1" cx="331.1" cy="97.6" r="24"/><circle class="st2" cx="478" cy="238.3" r="24"/><path class="st3" d="M249.6 90.5c10.1-8.9 21.7-18.9 21.7-34.9.1-15.9-11.3-25.9-21.3-34.8-1.1-.9-2.1-1.9-3.2-2.8-3.9-3.5-9.8-3.2-13.3.7-3.5 3.9-3.2 9.8.7 13.3 1.1 1 2.2 2 3.3 2.9 9.3 8.2 14.9 13.7 14.9 20.6 0 7-5.8 12.5-15.3 20.8-10.3 9-21.9 19.1-22.1 35.5-.2 16.3 11.2 26.8 21.2 36.1 8.5 7.9 15.8 14.7 15.7 23.3 0 8.2-6.8 14.7-14.7 22.3-9.8 9.3-20.8 19.9-21 36.7-.1 16.6 10.6 27.6 20 37.3 7.4 7.6 13.8 14.2 13.5 21.7-.3 6.8-5.6 11.5-14.3 18.5-9.2 7.5-20.7 16.8-21.3 32.4s9.9 26.5 19.2 36.1c7.8 8.1 14.6 15 14.4 23.3-.2 7.3-5.7 12.5-14.7 20.3-9.1 7.9-20.5 17.6-20.9 33.4-.1 5.2 4 9.5 9.2 9.6h.2c5.1 0 9.3-4.1 9.4-9.2.2-6.9 5.5-12 14.4-19.5 9.3-8 20.9-17.9 21.3-34.1.4-16.1-10.2-27.2-19.6-36.9-7.6-7.9-14.2-14.7-13.9-22.3.3-6.8 5.6-11.5 14.3-18.5 9.2-7.5 20.7-16.8 21.3-32.4.6-15.5-9.7-26.1-18.9-35.5-7.9-8.1-14.8-15.1-14.7-24.1.1-8.8 7.1-15.5 15.2-23.2 9.6-9.2 20.5-19.6 20.5-35.9 0-16.8-11.6-27.6-21.8-37.1-8.2-7.6-15.3-14.2-15.2-22.1.2-7.4 6.1-13 15.8-21.5zM85.2 134.1C77 126.5 69.9 119.9 70 112c.1-7.4 6-13.1 15.6-21.5 10.1-8.9 21.7-18.9 21.7-34.9.1-16-11.3-25.9-21.3-34.8-1-.9-2-1.8-3.1-2.8-3.9-3.5-9.8-3.2-13.3.7-3.5 3.9-3.2 9.8.7 13.3 1.1 1 2.2 2 3.3 2.9 9.3 8.2 14.9 13.7 14.9 20.6 0 7-5.8 12.5-15.3 20.8-10.3 9-21.9 19.1-22.1 35.5-.2 16.3 11.2 26.8 21.2 36.1 8.5 7.9 15.8 14.7 15.7 23.3 0 8.2-6.8 14.7-14.7 22.3-9.8 9.3-20.8 19.9-21 36.7 0 5.2 4.1 9.5 9.3 9.5h.1c5.2 0 9.4-4.2 9.4-9.3.1-8.8 7.1-15.5 15.2-23.2 9.6-9.2 20.5-19.6 20.5-35.9.1-16.9-11.4-27.7-21.6-37.2zm314.5 173.6c-9.2 7.5-20.7 16.8-21.3 32.4-.2 5.2 3.9 9.6 9 9.8h.4c5 0 9.2-4 9.4-9.1.3-6.8 5.6-11.5 14.3-18.5 9.2-7.5 20.7-16.8 21.3-32.4.6-15.5-9.7-26.1-18.9-35.5-7.9-8.1-14.8-15.1-14.7-24.1.1-8.8 7.1-15.5 15.2-23.2 9.6-9.2 20.5-19.6 20.5-35.9 0-16.8-11.6-27.6-21.8-37.1-8.2-7.6-15.3-14.2-15.2-22.1.1-7.4 6-13.1 15.6-21.5 10.1-8.9 21.7-18.9 21.7-34.9.1-15.9-11.3-25.9-21.3-34.8-1.1-.9-2.1-1.9-3.2-2.8-3.9-3.5-9.8-3.2-13.3.7-3.5 3.9-3.2 9.8.7 13.3 1.1 1 2.2 2 3.3 2.9 9.3 8.2 14.9 13.7 14.9 20.6 0 7-5.8 12.5-15.3 20.8-10.3 9-21.9 19.1-22.1 35.5-.2 16.3 11.2 26.8 21.2 36.1 8.5 7.9 15.8 14.7 15.7 23.3 0 8.2-6.8 14.7-14.7 22.3-9.8 9.3-20.8 19.9-21 36.7-.1 16.6 10.6 27.6 20 37.3 7.4 7.6 13.8 14.2 13.5 21.7.2 6.7-5.2 11.4-13.9 18.5zm-222.4 37.7l-17.7-2.6-7.9-16c-1.8-3.7-5.6-6.1-9.8-6.1-4.2 0-7.9 2.3-9.8 6.1l-7.9 16-17.7 2.6c-4.1.6-7.5 3.4-8.8 7.4s-.2 8.2 2.8 11.2l12.8 12.5-3 17.6c-1.5 8.7 7.9 15.6 15.8 11.5l15.8-8.3 15.8 8.3c3.7 1.9 8.1 1.6 11.5-.8 3.4-2.5 5-6.5 4.3-10.6l-3-17.6 12.8-12.5c3-2.9 4-7.2 2.8-11.2s-4.7-6.9-8.8-7.5zm-22.9 20.5c-2.6 2.5-3.7 6.1-3.1 9.6l1 5.8-5.2-2.8c-1.6-.8-3.3-1.2-5.1-1.2-1.7 0-3.5.4-5.1 1.2l-5.2 2.7 1-5.8c.6-3.5-.6-7.1-3.1-9.6l-4.2-4.1 5.8-.9c3.5-.5 6.6-2.7 8.2-6l2.6-5.3 2.6 5.3c1.6 3.2 4.6 5.5 8.2 6l5.8.9-4.2 4.2zM442.2 435l-17.7-2.6-7.9-16c-1.8-3.7-5.6-6.1-9.8-6.1-4.2 0-7.9 2.3-9.8 6.1l-7.9 16-17.7 2.6c-4.1.6-7.5 3.4-8.8 7.4-1.3 4-.2 8.2 2.8 11.2l12.8 12.5-3 17.6c-.7 4.1 1 8.2 4.3 10.6 3.4 2.5 7.8 2.8 11.5.8l15.8-8.3 15.8 8.3c7.8 4.1 17.3-2.8 15.8-11.5l-3-17.6 12.8-12.5c3-2.9 4-7.2 2.8-11.2-1.3-3.8-4.7-6.7-8.8-7.3zm-22.9 20.5c-2.6 2.5-3.7 6.1-3.1 9.6l1 5.8-5.2-2.7c-3.2-1.7-7-1.7-10.1 0l-5.2 2.7 1-5.8c.6-3.5-.6-7.1-3.1-9.6l-4.2-4.1 5.8-.9c3.5-.5 6.6-2.7 8.2-6l2.6-5.3 2.6 5.3c1.6 3.2 4.6 5.4 8.2 5.9l5.8.9-4.3 4.2zM159.7 149.4c-18.4 0-33.4 15-33.4 33.4s15 33.4 33.4 33.4 33.4-15 33.4-33.4-14.9-33.4-33.4-33.4zm0 47.9c-8 0-14.6-6.5-14.6-14.6 0-8 6.5-14.6 14.6-14.6s14.6 6.5 14.6 14.6-6.5 14.6-14.6 14.6zM20.1 63.4c0-5.5-4.5-10.1-10.1-10.1S0 57.9 0 63.4s4.5 10.1 10.1 10.1 10-4.6 10-10.1zm311 1.7c-18.4 0-33.4 15-33.4 33.4s15 33.4 33.4 33.4 33.4-15 33.4-33.4-15-33.4-33.4-33.4zm0 48c-8 0-14.6-6.5-14.6-14.6S323.1 84 331.1 84s14.6 6.5 14.6 14.6-6.6 14.5-14.6 14.5zM478 205.8c-18.4 0-33.4 15-33.4 33.4s15 33.4 33.4 33.4 33.4-15 33.4-33.4-15-33.4-33.4-33.4zm0 48c-8 0-14.6-6.5-14.6-14.6 0-8 6.5-14.6 14.6-14.6 8 0 14.6 6.5 14.6 14.6-.1 8-6.6 14.6-14.6 14.6zm-361.8 29.3c5.5 0 10.1-4.5 10.1-10.1s-4.5-10.1-10.1-10.1-10.1 4.5-10.1 10.1 4.6 10.1 10.1 10.1zm214.9-95.8c-5.5 0-10.1 4.5-10.1 10.1s4.5 10.1 10.1 10.1 10.1-4.5 10.1-10.1-4.5-10.1-10.1-10.1zM501.9 42c5.5 0 10.1-4.5 10.1-10.1s-4.5-10.1-10.1-10.1-10.1 4.5-10.1 10.1S496.4 42 501.9 42zM60.6 451c-5.5 0-10.1 4.5-10.1 10.1s4.5 10.1 10.1 10.1 10.1-4.5 10.1-10.1S66.1 451 60.6 451zm412.8-82.5c-5.5 0-10.1 4.5-10.1 10.1s4.5 10.1 10.1 10.1 10.1-4.5 10.1-10.1-4.6-10.1-10.1-10.1zM316.6 359c-5.5 0-10.1 4.5-10.1 10.1s4.5 10.1 10.1 10.1 10.1-4.5 10.1-10.1-4.6-10.1-10.1-10.1zM19.5 275.8c-5.5 0-10.1 4.5-10.1 10.1S13.9 296 19.5 296s10.1-4.5 10.1-10.1-4.6-10.1-10.1-10.1zM177.2 60.9c5.5 0 10.1-4.5 10.1-10.1s-4.5-10.1-10.1-10.1-10.1 4.5-10.1 10.1 4.6 10.1 10.1 10.1z"/></svg>