<svg id="Capa_1" xmlns="http://www.w3.org/2000/svg" viewBox="0 0 408.4 408.4"><style>.st0{fill:#405069}.st1{fill:#fc6767}.st2{fill:#fff}.st3{fill:#f857a6}</style><path class="st0" d="M408.4 163.1v149.1c0 36.6-29.8 66.4-66.4 66.4h-90.9c-3.3 11.8-14.1 20.5-27 20.5h-27.4c-15.4 0-28-12.6-28-28 0-15.5 12.6-28 28-28h27.4c12.9 0 23.7 8.7 27 20.5H342c28.3 0 51.4-23 51.4-51.4v-5.5c-7.5 6.4-17.2 10.3-27.8 10.3h-33.3c-9.9 0-18-8.1-18-18V180.9c0-9.9 8.1-18 18-18h33.3c10.6 0 20.3 3.9 27.8 10.3V163c0-64.1-48.6-117.3-111.6-123.6-3.4 7.2-10.7 12.1-19.1 12.1H145.8c-8.4 0-15.7-5-19.1-12.1C63.6 45.8 15 99 15 163.1v10.2c7.5-6.4 17.2-10.3 27.8-10.3h33.3c9.9 0 18 8.1 18 18v118c0 9.9-8.1 18-18 18H42.8C19.2 317 0 297.8 0 274.2V163.1c0-72 54.6-131.6 125.4-138.6 2.6-8.8 10.7-15.3 20.3-15.3h116.8c9.6 0 17.8 6.5 20.3 15.3 70.9 7 125.6 66.6 125.6 138.6zm-15 111.1v-68.5c0-15.3-12.5-27.8-27.8-27.8h-15.3V302h15.3c15.3 0 27.8-12.5 27.8-27.8zM335.2 302V177.9h-3c-1.6 0-3 1.3-3 3V299c0 1.6 1.3 3 3 3h3zM268.8 30.5c0-3.4-2.8-6.2-6.2-6.2H145.8c-3.4 0-6.2 2.8-6.2 6.2s2.8 6.2 6.2 6.2h116.8c3.4-.1 6.2-2.8 6.2-6.2zm-31.7 340.6c0-7.2-5.8-13-13-13h-27.4c-7.2 0-13 5.8-13 13s5.8 13 13 13h27.4c7.2 0 13-5.9 13-13zM79.1 299V180.9c0-1.6-1.3-3-3-3h-3V302h3c1.7 0 3-1.3 3-3zm-21 3V177.9H42.8c-15.3 0-27.8 12.5-27.8 27.8v68.5c0 15.3 12.5 27.8 27.8 27.8h15.3z"/><path class="st1" d="M393.4 205.7v68.5c0 15.3-12.5 27.8-27.8 27.8h-15.3V177.9h15.3c15.3 0 27.8 12.5 27.8 27.8z"/><path class="st2" d="M262.6 24.3c3.4 0 6.2 2.8 6.2 6.2s-2.8 6.2-6.2 6.2H145.8c-3.4 0-6.2-2.8-6.2-6.2s2.8-6.2 6.2-6.2h116.8z"/><path class="st3" d="M224.1 358c7.2 0 13 5.8 13 13s-5.8 13-13 13h-27.4c-7.2 0-13-5.8-13-13s5.8-13 13-13h27.4z"/><path class="st1" d="M58.1 177.9V302H42.8C27.5 302 15 289.5 15 274.2v-68.5c0-15.3 12.5-27.8 27.8-27.8h15.3z"/></svg>